<svg xmlns="http://www.w3.org/2000/svg" viewBox="0 0 120 120"><title>Kitchen</title><circle cx="71" cy="64" r="1"/><circle cx="79" cy="64" r="1"/><circle cx="63" cy="64" r="1"/><path d="M73.82,37.24a3.06,3.06,0,0,1-.82-2.1v-5A1.11,1.11,0,0,0,72,29H68a1.11,1.11,0,0,0-1,1.18v5a3.07,3.07,0,0,1-.82,2.1L63.6,40H76.4Z"/><path d="M14,87.62a.38.38,0,0,0,.38.38H34V66H14ZM28,72a2,2,0,0,1,4,0v4a2,2,0,0,1-4,0Z"/><path d="M33.62,29H14.38a.38.38,0,0,0-.38.38V62H34V29.38A.38.38,0,0,0,33.62,29ZM32,56a2,2,0,0,1-4,0V52a2,2,0,0,1,4,0Z"/><rect x="38" y="58" width="16" height="30"/><path d="M105.35,58H88V88h17.35a.65.65,0,0,0,.65-.65V58.65A.65.65,0,0,0,105.35,58Z"/><path d="M58,88H84V58H58ZM79,61a3,3,0,1,1-3,3A3,3,0,0,1,79,61Zm-8,0a3,3,0,1,1-3,3A3,3,0,0,1,71,61Zm-8,0a3,3,0,1,1-3,3A3,3,0,0,1,63,61Zm-3,8H82V85H60Z"/><rect x="64" y="73" width="14" height="8"/><path d="M60,0a60,60,0,1,0,60,60A60,60,0,0,0,60,0Zm-.8,38.86L63,34.78v-4.6A5.09,5.09,0,0,1,68,25H72a5.09,5.09,0,0,1,5,5.18v4.6l3.8,4.07a3.09,3.09,0,0,1,.57,3.34A3,3,0,0,1,78.65,44H61.35a3,3,0,0,1-2.71-1.8A3.09,3.09,0,0,1,59.2,38.86ZM105.35,92h-91A4.39,4.39,0,0,1,10,87.62V29.38A4.39,4.39,0,0,1,14.38,25H33.62A4.39,4.39,0,0,1,38,29.38V54H89V50.29a.29.29,0,0,0-.29-.29H88a2,2,0,0,1,0-4h.71A4.29,4.29,0,0,1,93,50.29V54h2V44a2,2,0,0,1,4,0V54h2V50.29A4.29,4.29,0,0,1,105.29,46H106a2,2,0,0,1,0,4h-.71a.29.29,0,0,0-.29.29V54h.35A4.66,4.66,0,0,1,110,58.65v28.7A4.66,4.66,0,0,1,105.35,92Z"/></svg>